
        <svg xmlns="http://www.w3.org/2000/svg" xmlns:xlink="http://www.w3.org/1999/xlink" version="1.1" width="3300" 
        height="2433.6804704379474" viewBox="0 0 3300 2433.6804704379474">
			<rect fill="#ffc93c" width="3300" height="2433.6804704379474"/>
			<g transform="scale(15) translate(10, 10)">
				<defs id="SvgjsDefs1241"></defs><g id="SvgjsG1242" featureKey="symbolFeature-0" transform="matrix(1.0416666666666667,0,0,1.0416666666666667,50,-18.75)" fill="#111111"><path xmlns="http://www.w3.org/2000/svg" d="M12,36H6c-3.314,0-6,2.686-6,6c0,2.737,1.832,5.045,4.337,5.766C1.688,49.967,0,53.286,0,57v18c0,1.721,1.1,3.112,3,4.237  V93c0,1.657,1.343,3,3,3h12c1.657,0,3-1.343,3-3v-9.754C29.952,84,40.125,84,48,84s18.049,0,27-0.754V93c0,1.657,1.343,3,3,3h12  c1.657,0,3-1.343,3-3V79.237c1.9-1.126,3-2.517,3-4.237V57c0-3.714-1.688-7.033-4.337-9.234C94.168,47.045,96,44.737,96,42  c0-3.314-2.686-6-6-6h-6l-3-9c-3-9-12-9-12-9H54H42H27c0,0-9,0-12,9L12,36L12,36z M69,39c-4.442,0-8.319,2.413-10.394,6H15h-2.838  l5.684-17.051c0.936-2.809,2.711-4.894,5.44-6.068C24.287,21.451,25.888,21,27,21h15h12h15c1.112,0,2.713,0.451,3.714,0.881  c2.728,1.173,4.503,3.258,5.44,6.068L83.838,45H81h-1.606C77.319,41.413,73.441,39,69,39L69,39z M62.293,45  c1.648-1.841,4.042-3,6.707-3s5.059,1.159,6.707,3H62.293L62.293,45z M61.5,57c0.828,0,1.5,0.672,1.5,1.5S62.328,60,61.5,60h-27  c-0.828,0-1.5-0.672-1.5-1.5s0.672-1.5,1.5-1.5H61.5L61.5,57z M61.5,63c0.828,0,1.5,0.672,1.5,1.5c0,0.828-0.672,1.5-1.5,1.5h-27  c-0.828,0-1.5-0.672-1.5-1.5c0-0.828,0.672-1.5,1.5-1.5H61.5L61.5,63z M61.5,69c0.828,0,1.5,0.672,1.5,1.5S62.328,72,61.5,72h-27  c-0.828,0-1.5-0.672-1.5-1.5s0.672-1.5,1.5-1.5H61.5L61.5,69z M78,72c-4.971,0-9-4.029-9-9s4.029-9,9-9s9,4.029,9,9S82.971,72,78,72  L78,72z M18,72c-4.971,0-9-4.029-9-9s4.029-9,9-9s9,4.029,9,9S22.971,72,18,72L18,72z"></path></g><g id="SvgjsG1243" featureKey="nameFeature-0" transform="matrix(1.4281634503606093,0,0,1.4281634503606093,-3.8846022423360376,84.20480294488976)" fill="#111111"><path d="M33.92 40 l-6.8 0 l0.56 -22.72 l-6.28 22.72 l-6.12 0 l-6.24 -22.72 l0.56 22.72 l-6.88 0 l0 -28.24 l10.32 0 l5.32 19.76 l5.24 -19.76 l10.32 0 l0 28.24 z M60.4 29.560000000000002 c0 4.72 -2.24 7.44 -3.68 8.64 c-1.2 1 -3.64 2.44 -7.56 2.44 c-1.08 0 -5.32 -0.2 -8.2 -3 c-1.24 -1.2 -3 -3.76 -3 -8.12 c0 -1.2 0.08 -4.6 2.44 -7.44 c1.44 -1.72 4.32 -3.88 9.6 -3.56 c2.44 0.12 4.6 0.68 6.56 2.24 c2.6 2.12 3.84 5.44 3.84 8.8 z M54.16 29.759999999999998 c0 -3.16 -1 -4.76 -2.2 -5.6 c-0.56 -0.4 -1.4 -0.8 -3.04 -0.8 c-0.28 0 -1.44 0.08 -2.32 0.6 c-1.12 0.64 -2.44 2.44 -2.44 5.52 c0 2.04 0.68 3.56 1.08 4.2 c0.48 0.72 1.68 2.04 4 2.04 c3.4 0 4.92 -2.84 4.92 -5.96 z M85.28 29.16 c0 3.12 -0.72 5.36 -1.28 6.48 c-0.72 1.48 -3 4.92 -7.8 4.92 c-0.84 0 -3 -0.08 -4.88 -1.56 c-0.48 -0.36 -0.84 -0.76 -1.2 -1.2 l0.04 2.2 l-5.72 0 l0 -28.24 l6 0 l0 9.28 c0.64 -0.68 0.68 -0.72 1.12 -1.04 c0.84 -0.64 2.32 -1.48 4.84 -1.48 c1.12 0 3.36 0.16 5.56 2.08 c1.64 1.4 3.32 3.76 3.32 8.56 z M79.28 29.32 c0 -0.52 -0.04 -1.56 -0.36 -2.84 c-0.24 -0.92 -0.92 -3.64 -4.12 -3.44 c-2.4 0.12 -4.52 1.68 -4.52 6.36 c0 0.2 0 2.92 0.92 4.52 c0.16 0.32 0.48 0.8 1.2 1.32 c1 0.68 2.04 0.76 2.48 0.76 c1.88 0 2.92 -1.2 3.28 -1.76 c1.12 -1.64 1.12 -4.68 1.12 -4.92 z M95.56 16.52 l-6.12 0 l0 -4.76 l6.12 0 l0 4.76 z M95.56 40 l-6.12 0 l0 -20.88 l6.12 0 l0 20.88 z M107.24000000000001 40 l-6.12 0 l0 -28.24 l6.12 0 l0 28.24 z M118.92000000000002 16.52 l-6.12 0 l0 -4.76 l6.12 0 l0 4.76 z M118.92000000000002 40 l-6.12 0 l0 -20.88 l6.12 0 l0 20.88 z M142.76000000000002 40 l-6.04 0 l0 -1.88 c-0.44 0.32 -0.84 0.6 -1.28 0.88 c-0.76 0.52 -2.52 1.56 -5.12 1.56 c-3.76 0 -5.48 -2.04 -6.16 -3.44 c-0.44 -0.88 -0.68 -1.92 -0.68 -2.92 c0 -3.76 3.36 -5.56 4.28 -5.96 c1.56 -0.68 4.4 -1.24 8.36 -1.96 l0 -1.16 c0 -0.72 -0.12 -2.52 -2.36 -2.52 c-1.8 0 -2.64 0.84 -2.96 1.52 c-0.08 0.16 -0.2 0.48 -0.28 0.92 l-6.16 0 c0.08 -0.84 0.12 -2.64 1.68 -4.2 c1.72 -1.68 4 -2 4.72 -2.12 c1.2 -0.16 2.2 -0.16 2.68 -0.16 c2.92 0 6.88 0.68 8.28 3.68 c0.24 0.56 0.44 1.12 0.44 2.32 l0 12.2 c0 1.8 0.08 2.48 0.6 3.24 z M136.12000000000003 30 l-3.96 1.32 c-0.24 0.08 -0.48 0.16 -0.72 0.28 c-1.52 0.64 -1.92 1.52 -1.92 2.32 c0 0.12 0.04 0.56 0.24 0.96 c0.24 0.4 0.84 1.16 2.12 1.16 c1.12 0 2.08 -0.64 2.36 -0.84 c1.8 -1.28 1.88 -3.24 1.88 -5.2 z"></path></g>
			</g>
		</svg>
	